<svg xmlns="http://www.w3.org/2000/svg" viewBox="0 0 48 32" width="48" height="32"><rect width="48" height="32" rx="4" fill="#fff" stroke="#e0e0e0" stroke-width=".5"/><path d="M18.5 7.8h-4.2c-.3 0-.5.2-.6.5l-1.7 10.8c0 .2.1.4.3.4h2c.3 0 .5-.2.6-.5l.5-2.9c0-.3.3-.5.6-.5h1.3c2.7 0 4.3-1.3 4.7-3.9.2-1.1 0-2-.5-2.6-.6-.8-1.7-1.3-3-1.3zm.5 3.8c-.2 1.5-1.4 1.5-2.5 1.5h-.6l.4-2.8c0-.2.2-.3.4-.3h.3c.8 0 1.5 0 1.8.4.2.3.3.7.2 1.2z" fill="#253B80"/><path d="M30.2 11.5h-2c-.2 0-.3.1-.4.3l-.1.5-.1-.2c-.4-.6-1.3-.8-2.2-.8-2.1 0-3.8 1.6-4.2 3.8-.2 1.1.1 2.2.7 2.9.6.7 1.4 1 2.4 1 1.7 0 2.6-1.1 2.6-1.1l-.1.5c0 .2.1.4.3.4h1.8c.3 0 .5-.2.6-.5l1.1-6.8c0-.2-.2-.4-.4-.4zm-2.6 3.7c-.2 1.1-1.1 1.8-2.2 1.8-.6 0-1-.2-1.3-.5-.3-.3-.4-.8-.3-1.3.2-1.1 1.1-1.8 2.2-1.8.5 0 1 .2 1.3.5.3.4.4.8.3 1.3z" fill="#253B80"/><path d="M37.5 11.5h-2c-.2 0-.4.1-.5.3l-2.8 4.2-1.2-4c-.1-.3-.3-.5-.6-.5h-2c-.2 0-.4.2-.3.5l2.3 6.7-2.1 3c-.2.2 0 .5.2.5h2c.2 0 .4-.1.5-.3l6.7-9.7c.2-.3 0-.6-.2-.6z" fill="#179BD7"/><path d="M18.5 7.8h-4.2c-.3 0-.5.2-.6.5l-1.7 10.8c0 .2.1.4.3.4h2.2c.2 0 .4-.2.4-.3l.5-3.1c0-.3.3-.5.6-.5h1.3c2.7 0 4.3-1.3 4.7-3.9.2-1.1 0-2-.5-2.6-.6-.8-1.7-1.3-3-1.3z" fill="#253B80"/></svg>
