<svg xmlns="http://www.w3.org/2000/svg" viewBox="0 0 48 32" width="48" height="32"><rect width="48" height="32" rx="4" fill="#1A1F71"/><path d="M19.5 21h-2.7l1.7-10.5h2.7L19.5 21zm11.4-10.2c-.5-.2-1.4-.4-2.4-.4-2.7 0-4.5 1.4-4.5 3.4 0 1.5 1.4 2.3 2.4 2.8 1 .5 1.4.8 1.4 1.3 0 .7-.8 1-1.6 1-1.1 0-1.6-.2-2.5-.5l-.3-.2-.4 2.2c.6.3 1.8.5 3 .5 2.8 0 4.7-1.4 4.7-3.5 0-1.2-.7-2-2.3-2.8-.9-.5-1.5-.8-1.5-1.3 0-.4.5-.9 1.5-.9.9 0 1.5.2 2 .4l.2.1.3-2.1zM35.6 21h2.3l-2-10.5H33.7c-.6 0-1.1.3-1.3.8l-3.8 9.7h2.7l.5-1.5h3.3l.5 1.5zm-2.8-3.5l1.4-3.7.8 3.7h-2.2zM15.7 10.5L13 17.8l-.3-1.4c-.5-1.6-2-3.4-3.7-4.3l2.4 8.9h2.8l4.1-10.5h-2.6z" fill="#fff"/><path d="M10.6 10.5H6.5l-.1.3c3.3.8 5.5 2.9 6.4 5.3l-.9-4.6c-.2-.7-.7-1-1.3-1z" fill="#F9A533"/></svg>
